<?xml version="1.0" encoding="UTF-8"?>
<svg version="1.1" xmlns="http://www.w3.org/2000/svg" width="500" height="500">
<path d="M0 0 C2.5 2.0625 2.5 2.0625 4 4 C4 4.66 4 5.32 4 6 C4.66 6 5.32 6 6 6 C6.74443359 7.68802734 6.74443359 7.68802734 7.50390625 9.41015625 C11.41257128 18.24966321 15.38793644 27.04451813 19.5546875 35.765625 C20.91256156 38.80432696 22.00903865 41.82507528 23 45 C19.65671974 45.8915414 16.73315943 45.96871909 13.3125 45.8125 C7.65565124 45.74475331 2.94365591 47.28779244 -2 50 C-3.00708356 50.99286591 -4.00870778 51.99136739 -5 53 C-5.66 53 -6.32 53 -7 53 C-7 53.66 -7 54.32 -7 55 C-7.66 55 -8.32 55 -9 55 C-9.226875 55.66 -9.45375 56.32 -9.6875 57 C-10.77513163 59.48601515 -11.89513078 61.44265222 -13.375 63.6875 C-15.69758535 67.32666716 -17.29252641 70.96438782 -18.8203125 74.9921875 C-20.35955397 78.91674357 -22.0514067 82.76726434 -23.75 86.625 C-24.0682373 87.34880859 -24.38647461 88.07261719 -24.71435547 88.81835938 C-25.47493116 90.54614833 -26.23727591 92.27315837 -27 94 C-11.87246747 91.16817484 0.59062914 83.11285144 12 73 C12.66 73 13.32 73 14 73 C14 72.34 14 71.68 14 71 C19.47619048 66 19.47619048 66 22 66 C22 65.34 22 64.68 22 64 C25 62 25 62 28 62 C38.6869144 87.94167231 48.83648888 113.98630633 57.8137207 140.57324219 C59.45653281 145.31876817 61.22335179 150.01744094 63.00390625 154.71289062 C65.04870363 161.46072197 65.38353728 168.3073195 62.890625 174.9609375 C60.51921892 179.3085153 57.76564915 183.30225763 53.18359375 185.4453125 C46.7718593 187.07405363 39.54782878 187.34193902 33.6875 184 C32.800625 183.34 31.91375 182.68 31 182 C31 181.34 31 180.68 31 180 C30.34 180 29.68 180 29 180 C26.9634586 175.62712177 25.0374002 171.30528747 23.625 166.6875 C19.72375654 154.77625668 13.50522048 143.5452209 2.4375 137 C-7.373456 132.2293805 -18.58213638 131.3223582 -29.1875 134.0625 C-39.74083916 137.78822729 -48.95088204 144.72268114 -54.42578125 154.5625 C-56.7603621 159.53522948 -58.63278329 164.67243639 -60.5625 169.8125 C-62.278798 174.34611737 -63.90003152 178.25865873 -67 182 C-67.66 182 -68.32 182 -69 182 C-69 182.66 -69 183.32 -69 184 C-75.53243846 186.79285413 -81.0260087 187.73458728 -88 186 C-92.85520051 183.57239975 -95.35184059 180.70783896 -98 176 C-101.01472049 165.97809134 -97.75175435 157.7324887 -93.98876953 148.47558594 C-92.07449753 143.68281603 -90.30073057 138.83629142 -88.5 134 C-87.40611897 131.08050178 -86.31056909 128.16163474 -85.21459961 125.24291992 C-84.34999599 122.93447169 -83.48923941 120.62458103 -82.63110352 118.3137207 C-79.15772902 108.97340957 -75.54622431 99.69414822 -71.84057617 90.44360352 C-70.93155281 88.17264248 -70.02719087 85.89986053 -69.12304688 83.62695312 C-66.27272327 76.48613883 -63.35165123 69.41112876 -60.11499023 62.43432617 C-58.3229749 58.52187053 -56.70252513 54.54040665 -55.0625 50.5625 C-52.43489716 44.25069539 -49.64361169 38.10450954 -46.49609375 32.03125 C-45.01693074 29.03430354 -43.69713498 26.00500764 -42.39550781 22.9284668 C-36.51387477 9.03094402 -36.51387477 9.03094402 -32 4 C-31.34 4 -30.68 4 -30 4 C-30 3.34 -30 2.68 -30 2 C-20.22042444 -3.83013158 -10.56270188 -5.18869566 0 0 Z " fill="#DA9F31" transform="translate(226,156)"/>
<path d="M0 0 C2.41346927 1.21188428 4.75086967 2.47725171 7.05859375 3.87890625 C7.05859375 4.53890625 7.05859375 5.19890625 7.05859375 5.87890625 C7.71859375 5.87890625 8.37859375 5.87890625 9.05859375 5.87890625 C13.35150752 13.46431397 13.6216321 20.38271528 13.57501411 28.92006111 C13.56225607 31.27152185 13.57378799 33.6218306 13.59104919 35.97325134 C13.6176193 40.11791933 13.62334981 44.26229952 13.62194824 48.40704346 C13.61971098 55.0426037 13.63404365 61.67780847 13.6775341 68.31323051 C13.68730316 70.61762992 13.67869361 72.92145847 13.6688385 75.22584534 C13.68013963 82.39754803 13.89522012 88.35598467 17.05859375 94.87890625 C17.38859375 95.86890625 17.71859375 96.85890625 18.05859375 97.87890625 C19.36936482 98.58890725 20.70596243 99.25231968 22.05859375 99.87890625 C23.08479505 100.76614279 24.08425177 101.68501246 25.05859375 102.62890625 C29.76672991 106.81162678 35.38641637 109.25238076 41.05859375 111.87890625 C41.11647159 115.50383959 41.15214795 119.12865482 41.18359375 122.75390625 C41.20035156 123.78644531 41.21710938 124.81898438 41.234375 125.8828125 C41.24082031 126.86894531 41.24726563 127.85507812 41.25390625 128.87109375 C41.26437988 129.7822998 41.27485352 130.69350586 41.28564453 131.63232422 C41.05859375 133.87890625 41.05859375 133.87890625 39.05859375 135.87890625 C36.48339844 136.13769531 36.48339844 136.13769531 33.23046875 136.14453125 C32.04428955 136.14880127 30.85811035 136.15307129 29.63598633 136.1574707 C28.37294678 136.14804443 27.10990723 136.13861816 25.80859375 136.12890625 C24.53201904 136.12141357 23.25544434 136.1139209 21.94018555 136.10620117 C-2.07968361 135.83162702 -2.07968361 135.83162702 -11.94140625 128.87890625 C-12.68132812 128.37230469 -13.42125 127.86570312 -14.18359375 127.34375 C-14.76367188 126.86035156 -15.34375 126.37695312 -15.94140625 125.87890625 C-15.94140625 125.21890625 -15.94140625 124.55890625 -15.94140625 123.87890625 C-16.60140625 123.87890625 -17.26140625 123.87890625 -17.94140625 123.87890625 C-26.96537771 113.90097209 -28.5503626 100.63889938 -28.69140625 87.75390625 C-28.71756035 86.37294886 -28.74461224 84.99200824 -28.77246094 83.61108398 C-28.84420901 79.63212407 -28.88320695 75.65333957 -28.91601562 71.67388916 C-28.94370899 68.62542236 -28.98120371 65.57715968 -29.01953125 62.52880859 C-29.08874425 56.81152403 -29.13624983 51.09437319 -29.16955566 45.37677002 C-29.18403389 43.10049332 -29.20277946 40.82423946 -29.22595215 38.54803467 C-29.25594944 35.3157376 -29.26535673 32.08398398 -29.26953125 28.8515625 C-29.28181763 27.89227341 -29.294104 26.93298431 -29.3067627 25.94462585 C-29.28370052 18.76932806 -28.58003664 11.25982075 -24.0390625 5.44140625 C-23.03166016 4.66796875 -23.03166016 4.66796875 -22.00390625 3.87890625 C-21.33488281 3.34265625 -20.66585938 2.80640625 -19.9765625 2.25390625 C-13.71686667 -1.97529324 -7.17251985 -2.73374927 0 0 Z " fill="#1C1B1A" transform="translate(332.94140625,208.12109375)"/>
<path d="M0 0 C2.41346927 1.21188428 4.75086967 2.47725171 7.05859375 3.87890625 C7.05859375 4.53890625 7.05859375 5.19890625 7.05859375 5.87890625 C7.71859375 5.87890625 8.37859375 5.87890625 9.05859375 5.87890625 C13.15116011 13.09395772 13.56499582 19.26119421 13.30859375 27.44140625 C13.29054688 28.54548828 13.2725 29.64957031 13.25390625 30.78710938 C13.20718423 33.48530606 13.14169515 36.1816266 13.05859375 38.87890625 C0.83948704 42.21261193 -9.1562828 42.18170248 -20.4296875 36.19140625 C-22.76450779 34.72452919 -22.76450779 34.72452919 -24.94140625 34.87890625 C-25.70711775 50.16870862 -26.19764689 65.44843852 -26.50390625 80.75390625 C-26.54728145 82.82161973 -26.59090031 84.88932811 -26.63476562 86.95703125 C-26.73976999 91.9309357 -26.84154071 96.90489608 -26.94140625 101.87890625 C-27.27140625 101.87890625 -27.60140625 101.87890625 -27.94140625 101.87890625 C-28.72014097 83.0463668 -29.08936447 64.21197156 -29.17358398 45.36367798 C-29.1854093 43.09295354 -29.202449 40.82224992 -29.22485352 38.55160522 C-29.2549768 35.31812564 -29.26478846 32.08516719 -29.26953125 28.8515625 C-29.28799103 27.41253067 -29.28799103 27.41253067 -29.30682373 25.94442749 C-29.28360208 18.76917359 -28.58001633 11.25979474 -24.0390625 5.44140625 C-23.03166016 4.66796875 -23.03166016 4.66796875 -22.00390625 3.87890625 C-21.33488281 3.34265625 -20.66585938 2.80640625 -19.9765625 2.25390625 C-13.71686667 -1.97529324 -7.17251985 -2.73374927 0 0 Z " fill="#D69016" transform="translate(332.94140625,208.12109375)"/>
<path d="M0 0 C1.21171875 -0.02578125 2.4234375 -0.0515625 3.671875 -0.078125 C7.5248711 0.27520652 9.93175572 1.31605395 13.25 3.25 C13.25 3.91 13.25 4.57 13.25 5.25 C13.91 5.25 14.57 5.25 15.25 5.25 C15.25 5.91 15.25 6.57 15.25 7.25 C15.91 7.25 16.57 7.25 17.25 7.25 C20.21801211 14.06496343 22.55072918 19.92127278 20.25 27.25 C18.78336445 30.38936695 17.11840318 33.33363636 15.25 36.25 C14.59 36.25 13.93 36.25 13.25 36.25 C13.25 36.91 13.25 37.57 13.25 38.25 C7.41218057 42.25307618 1.11756772 41.98880924 -5.75 41.25 C-11.42210803 39.72777293 -14.65753552 36.77717475 -17.83984375 31.93359375 C-21.15455897 25.80208191 -20.46339117 17.96980384 -18.75 11.4375 C-14.07233732 3.9824751 -8.72912608 0.11049527 0 0 Z " fill="#DBB351" transform="translate(324.75,152.75)"/>
<path d="M0 0 C2.5 2.0625 2.5 2.0625 4 4 C4 4.66 4 5.32 4 6 C4.66 6 5.32 6 6 6 C6.34780518 6.78648926 6.34780518 6.78648926 6.70263672 7.58886719 C7.75910537 9.97634907 8.81703813 12.36317945 9.875 14.75 C10.42220703 15.9875 10.42220703 15.9875 10.98046875 17.25 C11.33496094 18.04921875 11.68945312 18.8484375 12.0546875 19.671875 C12.37937012 20.4050293 12.70405273 21.13818359 13.03857422 21.89355469 C13.67892374 23.2965348 14.35276384 24.6847099 15.05908203 26.05566406 C16.44409283 28.91768431 17.14205271 31.94356277 18 35 C18.37125 35.9075 18.7425 36.815 19.125 37.75 C20 40 20 40 20 43 C17.03 43 14.06 43 11 43 C11.66 41.35 12.32 39.7 13 38 C13.66 38 14.32 38 15 38 C14.19618592 31.87460497 14.19618592 31.87460497 10.875 26.9375 C10.25625 26.628125 9.6375 26.31875 9 26 C8.34 26.66 7.68 27.32 7 28 C6.89999615 24.49986539 7.26119074 21.41699284 8 18 C8 17.34 8 16.68 8 16 C7.34 16 6.68 16 6 16 C5.505 13.03 5.505 13.03 5 10 C4.01 10 3.02 10 2 10 C2 8.35 2 6.7 2 5 C1.38125 4.87625 0.7625 4.7525 0.125 4.625 C-2 4 -2 4 -4 2 C-8.60605832 1.0129875 -13.32472572 0.56425724 -18 0 C-18.33 1.32 -18.66 2.64 -19 4 C-19 3.34 -19 2.68 -19 2 C-25.70673756 4.57951445 -32.1964978 10.03229517 -35.19140625 16.62109375 C-35.45824219 17.40613281 -35.72507813 18.19117188 -36 19 C-36.391875 19.886875 -36.78375 20.77375 -37.1875 21.6875 C-37.455625 22.450625 -37.72375 23.21375 -38 24 C-37.505 24.99 -37.505 24.99 -37 26 C-37.45375 26.4125 -37.9075 26.825 -38.375 27.25 C-41.33439052 30.43703594 -42.43142697 34.12674773 -43.625 38.25 C-43.88539063 39.14203125 -44.14578125 40.0340625 -44.4140625 40.953125 C-44.60742188 41.62859375 -44.80078125 42.3040625 -45 43 C-44.01 43.33 -43.02 43.66 -42 44 C-43.65 44 -45.3 44 -47 44 C-49.03435531 47.72965139 -50 49.66905042 -50 54 C-51.31200404 55.35432675 -52.64631404 56.68733482 -54 58 C-54.59070014 59.94603274 -54.59070014 59.94603274 -55 62 C-55.474375 62.70125 -55.94875 63.4025 -56.4375 64.125 C-57.97542 66.9547728 -58.41668551 68.86581283 -58.9375 72 C-59.72658013 76.42145726 -60.97361377 78.61756833 -64 82 C-66.95474397 87.07950368 -69.02862119 92.48013934 -71 98 C-71.66 98 -72.32 98 -73 98 C-73.12117187 98.67546875 -73.24234375 99.3509375 -73.3671875 100.046875 C-73.53476563 100.93890625 -73.70234375 101.8309375 -73.875 102.75 C-74.03742188 103.63171875 -74.19984375 104.5134375 -74.3671875 105.421875 C-74.96796264 107.86947744 -75.77997117 109.80599857 -77 112 C-77.66 112 -78.32 112 -79 112 C-79.103125 112.86625 -79.20625 113.7325 -79.3125 114.625 C-80.03398414 118.16683123 -81.27123261 120.84312042 -83 124 C-84 122 -84 122 -83.03344727 118.9309082 C-82.53177853 117.61355567 -82.02122672 116.2995664 -81.50390625 114.98828125 C-81.0941732 113.9247216 -81.0941732 113.9247216 -80.67616272 112.8396759 C-79.79299238 110.55621009 -78.89778068 108.27775753 -78 106 C-77.71292175 105.26730896 -77.42584351 104.53461792 -77.13006592 103.77972412 C-75.38449206 99.32725483 -73.61896515 94.88306083 -71.84057617 90.44360352 C-70.93155281 88.17264248 -70.02719087 85.89986053 -69.12304688 83.62695312 C-66.27272327 76.48613883 -63.35165123 69.41112876 -60.11499023 62.43432617 C-58.3229749 58.52187053 -56.70252513 54.54040665 -55.0625 50.5625 C-52.43489716 44.25069539 -49.64361169 38.10450954 -46.49609375 32.03125 C-45.01693074 29.03430354 -43.69713498 26.00500764 -42.39550781 22.9284668 C-36.51387477 9.03094402 -36.51387477 9.03094402 -32 4 C-31.34 4 -30.68 4 -30 4 C-30 3.34 -30 2.68 -30 2 C-20.22042444 -3.83013158 -10.56270188 -5.18869566 0 0 Z " fill="#E9D696" transform="translate(226,156)"/>
<path d="M0 0 C3.2428329 3.72925783 5.5119901 8.30238735 7 13 C6.67 13.99 6.34 14.98 6 16 C5.10539062 15.95359375 4.21078125 15.9071875 3.2890625 15.859375 C-4.56723529 15.62485865 -11.1082743 15.95161889 -18 20 C-19.00237811 20.99761622 -20.00287768 21.99713058 -21 23 C-21.66 23 -22.32 23 -23 23 C-23 23.66 -23 24.32 -23 25 C-23.66 25 -24.32 25 -25 25 C-25.226875 25.66 -25.45375 26.32 -25.6875 27 C-26.77513163 29.48601515 -27.89513078 31.44265222 -29.375 33.6875 C-31.74870837 37.40075725 -33.3903964 41.146043 -34.953125 45.2578125 C-36.15579846 48.40809896 -37.44737083 51.5147899 -38.75 54.625 C-39.17796875 55.64851563 -39.6059375 56.67203125 -40.046875 57.7265625 C-40.36140625 58.47679687 -40.6759375 59.22703125 -41 60 C-42.35114472 56.94255252 -41.9224598 55.77959635 -40.78515625 52.546875 C-40.22254947 51.27604557 -39.64790949 50.01048782 -39.0625 48.75 C-38.77181641 48.1003125 -38.48113281 47.450625 -38.18164062 46.78125 C-37.46471025 45.18284785 -36.73371051 43.59076946 -36 42 C-37.485 42.495 -37.485 42.495 -39 43 C-38.67 42.01 -38.34 41.02 -38 40 C-37.01 39.505 -37.01 39.505 -36 39 C-34.40613544 35.61303782 -33.12935892 32.49753432 -32.1875 28.875 C-30.38906289 24.5208891 -27.23078319 22.11539159 -23 20 C-22.34786708 17.97536745 -22.34786708 17.97536745 -22 16 C-20.906875 15.71125 -19.81375 15.4225 -18.6875 15.125 C-14.95986155 14.18106796 -14.95986155 14.18106796 -12 12 C-9.21984591 12.01717912 -6.57219487 12.13397861 -3.8125 12.375 C-2.68811523 12.46007812 -2.68811523 12.46007812 -1.54101562 12.546875 C0.30676559 12.68810669 2.153512 12.84276167 4 13 C3.71125 12.39671875 3.4225 11.7934375 3.125 11.171875 C2.75375 10.37265625 2.3825 9.5734375 2 8.75 C1.62875 7.96109375 1.2575 7.1721875 0.875 6.359375 C0 4 0 4 0 0 Z " fill="#B39752" transform="translate(242,186)"/>
<path d="M0 0 C1.48550695 2.97101391 0.82306972 4.83434722 0 8 C-1.29233607 9.37310707 -2.62437146 10.71034824 -4 12 C-4.59070014 13.94603274 -4.59070014 13.94603274 -5 16 C-5.474375 16.70125 -5.94875 17.4025 -6.4375 18.125 C-7.97542 20.9547728 -8.41668551 22.86581283 -8.9375 26 C-9.72658013 30.42145726 -10.97361377 32.61756833 -14 36 C-16.95474397 41.07950368 -19.02862119 46.48013934 -21 52 C-21.66 52 -22.32 52 -23 52 C-23.12117187 52.67546875 -23.24234375 53.3509375 -23.3671875 54.046875 C-23.53476563 54.93890625 -23.70234375 55.8309375 -23.875 56.75 C-24.03742188 57.63171875 -24.19984375 58.5134375 -24.3671875 59.421875 C-24.96796264 61.86947744 -25.77997117 63.80599857 -27 66 C-27.66 66 -28.32 66 -29 66 C-29.103125 66.86625 -29.20625 67.7325 -29.3125 68.625 C-30.03398414 72.16683123 -31.27123261 74.84312042 -33 78 C-34 76 -34 76 -33.03344727 72.9309082 C-32.53177853 71.61355567 -32.02122672 70.2995664 -31.50390625 68.98828125 C-31.0941732 67.9247216 -31.0941732 67.9247216 -30.67616272 66.8396759 C-29.79299238 64.55621009 -28.89778068 62.27775753 -28 60 C-27.71292175 59.26730896 -27.42584351 58.53461792 -27.13006592 57.77972412 C-25.38449206 53.32725483 -23.61896515 48.88306083 -21.84057617 44.44360352 C-20.93155281 42.17264248 -20.02719087 39.89986053 -19.12304688 37.62695312 C-16.25322141 30.43760661 -13.32905516 23.30360725 -10.04516602 16.2902832 C-9.29531888 14.64713535 -8.60284004 12.97734769 -7.94897461 11.29370117 C-6.92700945 8.82357957 -5.90434795 7.8311038 -4 6 C-2.63988391 4.01811655 -1.30208796 2.02048131 0 0 Z " fill="#DDB252" transform="translate(176,202)"/>
<path d="M0 0 C1.68484242 2.52726364 2.63657316 4.43629932 3.65625 7.23828125 C3.95660156 8.05876953 4.25695312 8.87925781 4.56640625 9.72460938 C5.02853516 11.00561523 5.02853516 11.00561523 5.5 12.3125 C5.80808594 13.15490234 6.11617188 13.99730469 6.43359375 14.86523438 C7.03201212 16.5076745 7.62526809 18.15200638 8.21289062 19.79833984 C8.85653137 21.59869725 9.51930131 23.39220582 10.1875 25.18359375 C12.03758215 31.59661888 12.21186401 38.69648458 9.90234375 44.9921875 C7.47107237 49.36199259 4.73128726 53.24521338 0.14453125 55.4609375 C-4.48611697 56.62492558 -9.26966094 56.27962595 -14 56 C-14 55.34 -14 54.68 -14 54 C-16.46326712 52.3553326 -16.46326712 52.3553326 -19 51 C-17.02 50.505 -17.02 50.505 -15 50 C-15 50.66 -15 51.32 -15 52 C-13.25008666 52.02715383 -11.50005055 52.04646551 -9.75 52.0625 C-8.77546875 52.07410156 -7.8009375 52.08570313 -6.796875 52.09765625 C-4.34241322 52.01195577 -2.33831086 51.70706066 0 51 C0 50.34 0 49.68 0 49 C0.99 48.505 0.99 48.505 2 48 C2.309375 47.195625 2.61875 46.39125 2.9375 45.5625 C4 43 4 43 7 41 C7.58687784 37.65386488 7.58687784 37.65386488 7.6875 33.875 C7.75324219 32.59367187 7.81898438 31.31234375 7.88671875 29.9921875 C7.92410156 29.00476563 7.96148437 28.01734375 8 27 C7.34 27 6.68 27 6 27 C2.12827173 18.12885561 0.90891529 9.53165114 0 0 Z " fill="#A87027" transform="translate(279,286)"/>
<path d="M0 0 C6.13146933 0.83610945 10.01663963 2.11717116 14 7 C14.83597356 8.96600817 15.52643215 10.9531346 16.2109375 12.9765625 C17.36604417 15.93866773 19.21567942 18.38299649 21 21 C21.185625 21.763125 21.37125 22.52625 21.5625 23.3125 C21.706875 23.869375 21.85125 24.42625 22 25 C22.99 25.33 23.98 25.66 25 26 C24.67 26.99 24.34 27.98 24 29 C24.61130443 35.72434874 25.90876615 39.5258854 31 44 C34.00778521 45.00259507 36.53820647 45.30314642 39.6875 45.5625 C40.68136719 45.64628906 41.67523438 45.73007812 42.69921875 45.81640625 C43.83810547 45.90728516 43.83810547 45.90728516 45 46 C45 46.33 45 46.66 45 47 C33.34233993 48.7610915 33.34233993 48.7610915 28.75 46.0625 C27.38875 45.0415625 27.38875 45.0415625 26 44 C26 43.34 26 42.68 26 42 C25.34 42 24.68 42 24 42 C21.9634586 37.62712177 20.0374002 33.30528747 18.625 28.6875 C14.78924163 16.97619519 8.63326208 8.63326208 0 0 Z " fill="#CD9240" transform="translate(231,294)"/>
<path d="M0 0 C0.62003906 0.3609375 1.24007813 0.721875 1.87890625 1.09375 C12.523695 6.67180524 22.35395693 5.45575538 34 4 C34 19.84 34 35.68 34 52 C33.67 52 33.34 52 33 52 C32.67 37.48 32.34 22.96 32 8 C30.68 8.33 29.36 8.66 28 9 C27.67 9.99 27.34 10.98 27 12 C25.68 12 24.36 12 23 12 C23 11.01 23 10.02 23 9 C21.90300781 9.05800781 20.80601562 9.11601562 19.67578125 9.17578125 C18.22139686 9.22269688 16.76696626 9.26819511 15.3125 9.3125 C14.59126953 9.35439453 13.87003906 9.39628906 13.12695312 9.43945312 C8.88740251 9.53624652 7.44201358 9.35052306 3.98046875 6.60546875 C2 4 2 4 2 2 C1.34 2 0.68 2 0 2 C0 1.34 0 0.68 0 0 Z " fill="#38342C" transform="translate(312,243)"/>
<path d="M0 0 C2.64752004 2.57784846 4.94432065 4.91648098 7 8 C5.68 8 4.36 8 3 8 C2.2342885 23.28980237 1.74375936 38.56953227 1.4375 53.875 C1.3941248 55.94271348 1.35050594 58.01042186 1.30664062 60.078125 C1.20163626 65.05202945 1.09986554 70.02598983 1 75 C0.67 75 0.34 75 0 75 C-1.74443266 24.67126193 -1.74443266 24.67126193 0 0 Z " fill="#6F6A63" transform="translate(305,235)"/>
<path d="M0 0 C0.495 0.99 0.495 0.99 1 2 C0.18714486 4.19914263 -0.72730917 6.36107612 -1.6875 8.5 C-2.25116355 9.76771246 -2.81365722 11.0359457 -3.375 12.3046875 C-3.6534375 12.93084961 -3.931875 13.55701172 -4.21875 14.20214844 C-5.60627982 17.39520144 -6.82445714 20.65357026 -8.04296875 23.9140625 C-9.11047663 26.24079396 -10.31400786 28.07439657 -12 30 C-12.66 30 -13.32 30 -14 30 C-14 30.66 -14 31.32 -14 32 C-20.31815072 34.70123835 -26.24518058 36.0175075 -33 34 C-33.66 33.01 -34.32 32.02 -35 31 C-33.96359375 31.02320313 -32.9271875 31.04640625 -31.859375 31.0703125 C-30.48959056 31.08907667 -29.1197983 31.10727618 -27.75 31.125 C-26.72712891 31.15013672 -26.72712891 31.15013672 -25.68359375 31.17578125 C-21.9391765 31.21213482 -19.17647273 31.07944349 -16 29 C-16 28.34 -16 27.68 -16 27 C-14.68 27 -13.36 27 -12 27 C-12 25.35 -12 23.7 -12 22 C-11.34 22 -10.68 22 -10 22 C-10 20.02 -10 18.04 -10 16 C-9.34 16 -8.68 16 -8 16 C-7.9175 15.113125 -7.835 14.22625 -7.75 13.3125 C-6.89011965 9.51469512 -5.53207185 7.90443535 -3 5 C-1.9731657 3.3497306 -0.96432076 1.68756133 0 0 Z " fill="#A16F20" transform="translate(171,308)"/>
<path d="M0 0 C3.53482108 4.00197805 5.57345506 8.01846662 7.625 12.875 C7.9240625 13.55691406 8.223125 14.23882812 8.53125 14.94140625 C10.37996158 19.23597962 11.7750379 23.48991226 13 28 C13.37125 28.9075 13.7425 29.815 14.125 30.75 C15 33 15 33 15 36 C12.03 36 9.06 36 6 36 C6.66 34.35 7.32 32.7 8 31 C8.66 31 9.32 31 10 31 C9.19618592 24.87460497 9.19618592 24.87460497 5.875 19.9375 C5.25625 19.628125 4.6375 19.31875 4 19 C3.34 19.66 2.68 20.32 2 21 C1.89999615 17.49986539 2.26119074 14.41699284 3 11 C3 10.34 3 9.68 3 9 C2.34 9 1.68 9 1 9 C0.67 6.03 0.34 3.06 0 0 Z " fill="#CDB671" transform="translate(231,163)"/>
<path d="M0 0 C0.99 0.33 1.98 0.66 3 1 C-3.46312601 6.94057539 -10.06202516 12.62002653 -17 18 C-17.69351563 18.56976563 -18.38703125 19.13953125 -19.1015625 19.7265625 C-21 21 -21 21 -24 21 C-24.33 21.99 -24.66 22.98 -25 24 C-28.5625 25.1875 -28.5625 25.1875 -32 26 C-32 26.66 -32 27.32 -32 28 C-34.31 28.66 -36.62 29.32 -39 30 C-39 30.66 -39 31.32 -39 32 C-43.1205746 33.99785435 -46.45194365 34.17835515 -51 34 C-48.40095527 30.78780035 -45.63865194 30.1049834 -41.75 28.9375 C-30.33130244 25.03266042 -20.97572681 17.93203764 -12 10 C-11.34 10 -10.68 10 -10 10 C-10 9.34 -10 8.68 -10 8 C-4.52380952 3 -4.52380952 3 -2 3 C-2 2.34 -2 1.68 -2 1 C-1.34 0.67 -0.68 0.34 0 0 Z " fill="#CBB384" transform="translate(250,219)"/>
<path d="M0 0 C1.21171875 -0.02578125 2.4234375 -0.0515625 3.671875 -0.078125 C7.5248711 0.27520652 9.93175572 1.31605395 13.25 3.25 C13.25 3.91 13.25 4.57 13.25 5.25 C13.91 5.25 14.57 5.25 15.25 5.25 C15.25 5.91 15.25 6.57 15.25 7.25 C15.91 7.25 16.57 7.25 17.25 7.25 C17.25 7.91 17.25 8.57 17.25 9.25 C16.26 9.58 15.27 9.91 14.25 10.25 C14.25 9.59 14.25 8.93 14.25 8.25 C13.71375 7.981875 13.1775 7.71375 12.625 7.4375 C10.25 6.25 10.25 6.25 7.75 4.6875 C2.69727709 2.61227452 -2.33395513 2.50415097 -7.75 2.25 C-8.08 3.24 -8.41 4.23 -8.75 5.25 C-9.8946875 5.8378125 -9.8946875 5.8378125 -11.0625 6.4375 C-14.86867165 9.00445297 -16.40230948 11.89930344 -17.75 16.25 C-18.30345567 21.30796983 -18.0649579 26.31890786 -16.75 31.25 C-16.09 31.25 -15.43 31.25 -14.75 31.25 C-14.42 32.9 -14.09 34.55 -13.75 36.25 C-17.69146771 32.70267906 -19.49283332 29.70143303 -20.05078125 24.3828125 C-20.07813824 17.36118416 -20.04786168 11.60181443 -14.83984375 6.30859375 C-9.67629511 1.66983408 -7.05351958 0.08928506 0 0 Z " fill="#E2CC91" transform="translate(324.75,152.75)"/>
<path d="M0 0 C2.4601763 4.92035259 2.33124696 7.7582151 1 13 C-0.44676933 16.15053058 -2.13092502 19.08258776 -4 22 C-4.66 22 -5.32 22 -6 22 C-6 22.66 -6 23.32 -6 24 C-11.78629225 27.96774326 -18.18270307 27.67820654 -25 27 C-27.3984375 25.98046875 -27.3984375 25.98046875 -29 25 C-29 24.67 -29 24.34 -29 24 C-27.97519531 24.03480469 -26.95039063 24.06960937 -25.89453125 24.10546875 C-24.53387064 24.13362035 -23.1731922 24.16091904 -21.8125 24.1875 C-21.13896484 24.21263672 -20.46542969 24.23777344 -19.77148438 24.26367188 C-15.21953026 24.33028584 -12.72987035 23.52412185 -9 21 C-8.01 21 -7.02 21 -6 21 C-6 19.68 -6 18.36 -6 17 C-5.34 17 -4.68 17 -4 17 C-4 16.01 -4 15.02 -4 14 C-3.34 14 -2.68 14 -2 14 C-2 12.35 -2 10.7 -2 9 C-1.67 9 -1.34 9 -1 9 C-0.67 6.03 -0.34 3.06 0 0 Z " fill="#A4864C" transform="translate(344,167)"/>
<path d="M0 0 C0.66 0 1.32 0 2 0 C3.0394775 3.1184325 3.11494838 5.27475586 3.09765625 8.54296875 C3.09443359 9.61611328 3.09121094 10.68925781 3.08789062 11.79492188 C3.07951172 12.91447266 3.07113281 14.03402344 3.0625 15.1875 C3.05798828 16.31865234 3.05347656 17.44980469 3.04882812 18.61523438 C3.03703498 21.41020927 3.0205765 24.2050782 3 27 C-5.93390247 29.47065887 -16.31638197 31.33361013 -24.9375 27 C-25.948125 26.34 -26.95875 25.68 -28 25 C-25.50907189 23.75453595 -24.58919267 24.2232422 -22 25 C-22 25.66 -22 26.32 -22 27 C-19.47909222 27.0272367 -16.95848543 27.04695207 -14.4375 27.0625 C-13.38079102 27.07506836 -13.38079102 27.07506836 -12.30273438 27.08789062 C-11.60341797 27.09111328 -10.90410156 27.09433594 -10.18359375 27.09765625 C-9.23311157 27.10551147 -9.23311157 27.10551147 -8.26342773 27.11352539 C-5.15729419 26.95773291 -2.07878063 26.4398258 1 26 C0.505 13.13 0.505 13.13 0 0 Z " fill="#AE7D32" transform="translate(343,220)"/>
<path d="M0 0 C1 2 1 2 0.42675781 3.82836914 C0.10545898 4.55660889 -0.21583984 5.28484863 -0.546875 6.03515625 C-1.0728125 7.25041992 -1.0728125 7.25041992 -1.609375 8.49023438 C-1.98578125 9.33908203 -2.3621875 10.18792969 -2.75 11.0625 C-4.8689931 15.88699322 -6.93687054 20.64389447 -8.50390625 25.6796875 C-9.87304426 29.93449677 -11.77126175 33.299506 -14.1875 37.0625 C-14.55552734 37.64193359 -14.92355469 38.22136719 -15.30273438 38.81835938 C-16.19324596 40.21773472 -17.09535202 41.60972151 -18 43 C-18.33 42.34 -18.66 41.68 -19 41 C-18.07777074 38.53971076 -17.09193725 36.19688882 -16 33.8125 C-15.68111816 33.1014209 -15.36223633 32.3903418 -15.03369141 31.65771484 C-14.03217052 29.43391565 -13.01806099 27.21627068 -12 25 C-11.68901367 24.32018066 -11.37802734 23.64036133 -11.05761719 22.93994141 C-7.51813187 15.22036575 -3.86220725 7.5642308 0 0 Z " fill="#F0DFAE" transform="translate(189,168)"/>
<path d="M0 0 C0.81788746 2.33020766 1.20993981 3.50732718 0.22265625 5.82421875 C-0.16019531 6.43910156 -0.54304688 7.05398437 -0.9375 7.6875 C-3.31353035 12.16540334 -4.05471831 15.99662553 -3 21 C-1.86072186 23.26278773 -0.60071757 25.23903128 0.90625 27.2734375 C2 29 2 29 2 32 C0.68485396 30.54405245 -0.62703717 29.08516421 -1.9375 27.625 C-2.66839844 26.81289062 -3.39929688 26.00078125 -4.15234375 25.1640625 C-6.77074659 22.0972651 -7.28647309 20.17470816 -7.21875 16.13671875 C-6.66306286 10.70884613 -5.32437743 5.58925292 -1.8125 1.375 C-1.214375 0.92125 -0.61625 0.4675 0 0 Z " fill="#D6AC60" transform="translate(311,212)"/>
<path d="M0 0 C0.86748385 3.12636937 0.99862743 4.97754774 0.125 8.125 C-0.05804688 8.80820313 -0.24109375 9.49140625 -0.4296875 10.1953125 C-1 12 -1 12 -2 14 C-2.66 14 -3.32 14 -4 14 C-4.12117187 14.67546875 -4.24234375 15.3509375 -4.3671875 16.046875 C-4.53476563 16.93890625 -4.70234375 17.8309375 -4.875 18.75 C-5.03742188 19.63171875 -5.19984375 20.5134375 -5.3671875 21.421875 C-5.96796264 23.86947744 -6.77997117 25.80599857 -8 28 C-8.66 28 -9.32 28 -10 28 C-10.103125 28.86625 -10.20625 29.7325 -10.3125 30.625 C-11.03398414 34.16683123 -12.27123261 36.84312042 -14 40 C-15 38 -15 38 -14.1015625 35.078125 C-13.61804648 33.79877238 -13.12505461 32.52297929 -12.625 31.25 C-12.36187012 30.56421875 -12.09874023 29.8784375 -11.82763672 29.171875 C-8.03985969 19.38696379 -4.01326606 9.69403478 0 0 Z " fill="#EDCF87" transform="translate(157,240)"/>
<path d="M0 0 C0.66 0.33 1.32 0.66 2 1 C1.21625 1.9075 0.4325 2.815 -0.375 3.75 C-3.26329203 7.22574126 -5.24668896 10.48013377 -6 15 C-5.67 15.66 -5.34 16.32 -5 17 C-5.45375 17.4125 -5.9075 17.825 -6.375 18.25 C-9.33439052 21.43703594 -10.43142697 25.12674773 -11.625 29.25 C-11.88539063 30.14203125 -12.14578125 31.0340625 -12.4140625 31.953125 C-12.60742188 32.62859375 -12.80078125 33.3040625 -13 34 C-12.01 34.33 -11.02 34.66 -10 35 C-10.78375 34.95875 -11.5675 34.9175 -12.375 34.875 C-15.16116119 34.71271266 -15.16116119 34.71271266 -17 37 C-15.51903643 30.13529825 -12.54281628 23.53085159 -10 17 C-9.73461426 16.31824707 -9.46922852 15.63649414 -9.19580078 14.93408203 C-8.43789025 13.0117496 -7.66074302 11.09860191 -6.875 9.1875 C-6.41867188 8.06730469 -5.96234375 6.94710937 -5.4921875 5.79296875 C-3.96646939 2.93723983 -2.73138322 1.67048116 0 0 Z " fill="#E3C366" transform="translate(194,165)"/>
<path d="M0 0 C0.98484375 0.00902344 1.9696875 0.01804688 2.984375 0.02734375 C4.10585937 0.04474609 4.10585937 0.04474609 5.25 0.0625 C5.25 0.3925 5.25 0.7225 5.25 1.0625 C-1.185 1.5575 -1.185 1.5575 -7.75 2.0625 C-8.08 3.3825 -8.41 4.7025 -8.75 6.0625 C-12.61820875 10.53170163 -17.27936727 13.05287981 -22.75 15.0625 C-21.62548273 12.0905615 -20.52706209 9.72809313 -18.75 7.0625 C-18.09 7.0625 -17.43 7.0625 -16.75 7.0625 C-16.75 6.4025 -16.75 5.7425 -16.75 5.0625 C-10.8137011 1.52355258 -7.00793502 -0.0834278 0 0 Z " fill="#EFDFAB" transform="translate(212.75,152.9375)"/>
<path d="M0 0 C0.33 0.66 0.66 1.32 1 2 C-1.71799575 6.78367251 -4.54261081 10.32524565 -10 12 C-14.02506062 12.31233261 -17.9725598 12.23807528 -22 12 C-22 11.34 -22 10.68 -22 10 C-24.46326712 8.3553326 -24.46326712 8.3553326 -27 7 C-25.68 6.67 -24.36 6.34 -23 6 C-23 6.66 -23 7.32 -23 8 C-21.25008666 8.02715383 -19.50005055 8.04646551 -17.75 8.0625 C-16.77546875 8.07410156 -15.8009375 8.08570313 -14.796875 8.09765625 C-12.34241322 8.01195577 -10.33831086 7.70706066 -8 7 C-8 6.34 -8 5.68 -8 5 C-7.05125 4.731875 -6.1025 4.46375 -5.125 4.1875 C-1.74732727 3.25013412 -1.74732727 3.25013412 0 0 Z " fill="#AE6D18" transform="translate(287,330)"/>
<path d="M0 0 C0.66 0 1.32 0 2 0 C1.54636829 1.58468677 1.08688548 3.16769924 0.625 4.75 C0.36976563 5.63171875 0.11453125 6.5134375 -0.1484375 7.421875 C-0.92404718 9.77005109 -1.87604273 11.80560723 -3 14 C-4.02195463 16.64263015 -4.83705018 19.16001739 -5 22 C-3.29039594 24.54645504 -3.29039594 24.54645504 -1 26 C-3.31 25.67 -5.62 25.34 -8 25 C-8.33 24.01 -8.66 23.02 -9 22 C-9.99 22.33 -10.98 22.66 -12 23 C-12 22.01 -12 21.02 -12 20 C-10.68 20 -9.36 20 -8 20 C-8 19.01 -8 18.02 -8 17 C-7.34 17 -6.68 17 -6 17 C-6 15.35 -6 13.7 -6 12 C-5.34 11.67 -4.68 11.34 -4 11 C-3.12757089 8.95383439 -3.12757089 8.95383439 -2.4375 6.5625 C-1.06329114 2.12658228 -1.06329114 2.12658228 0 0 Z " fill="#CBA64E" transform="translate(204,228)"/>
<path d="M0 0 C6.07037429 0.82777831 10.11523469 2.07929727 14 7 C14.90664929 9.65882544 15.44667678 12.23338391 16 15 C15.01 15.33 14.02 15.66 13 16 C12.58878906 15.27167969 12.17757812 14.54335938 11.75390625 13.79296875 C10.01353016 11.0215458 8.13492413 8.73172021 5.9375 6.3125 C5.24527344 5.54550781 4.55304688 4.77851563 3.83984375 3.98828125 C2.58646263 2.63377809 1.30492204 1.30492204 0 0 Z " fill="#A67628" transform="translate(231,294)"/>
<path d="M0 0 C1.48550695 2.97101391 0.82306972 4.83434722 0 8 C-1.29233607 9.37310707 -2.62437146 10.71034824 -4 12 C-4.144375 12.639375 -4.28875 13.27875 -4.4375 13.9375 C-5.30964431 17.13536247 -7.64133969 18.75639629 -10 21 C-10.66 21.99 -11.32 22.98 -12 24 C-11.37558603 20.44466334 -10.4493288 17.23201951 -9.125 13.875 C-8.63386719 12.60269531 -8.63386719 12.60269531 -8.1328125 11.3046875 C-6.99261941 8.98498431 -5.87465335 7.73831493 -4 6 C-2.63988391 4.01811655 -1.30208796 2.02048131 0 0 Z " fill="#E7C87C" transform="translate(176,202)"/>
<path d="M0 0 C2.61421879 3.92132819 4.04769316 8.03729688 5.6875 12.4375 C6.18733398 13.72624023 6.18733398 13.72624023 6.69726562 15.04101562 C7.00728516 15.87181641 7.31730469 16.70261719 7.63671875 17.55859375 C8.06537231 18.69252563 8.06537231 18.69252563 8.50268555 19.84936523 C9.06303694 22.27260306 8.79180162 23.66952005 8 26 C7.18639005 24.70903219 6.37414954 23.41720125 5.5625 22.125 C5.11003906 21.40570313 4.65757812 20.68640625 4.19140625 19.9453125 C1.80513378 16.0490381 1.458595 12.34483715 0.9375 7.875 C0.84662109 7.12089844 0.75574219 6.36679687 0.66210938 5.58984375 C0.43809148 3.72695812 0.21861427 1.86352748 0 0 Z " fill="#A27333" transform="translate(279,286)"/>
<path d="M0 0 C0.66 0.33 1.32 0.66 2 1 C0 4 0 4 -2.375 5.1875 C-6.11907168 7.77269235 -7.66370701 10.68609763 -9 15 C-9.55345567 20.05796983 -9.3149579 25.06890786 -8 30 C-7.34 30 -6.68 30 -6 30 C-5.67 31.65 -5.34 33.3 -5 35 C-8.94146771 31.45267906 -10.74283332 28.45143303 -11.30078125 23.1328125 C-11.32429315 17.09809165 -11.29616994 12.25327084 -8 7 C-5.47228688 4.47727251 -2.81268131 2.19803361 0 0 Z " fill="#EDDBAB" transform="translate(316,154)"/>
<path d="M0 0 C3.2428329 3.72925783 5.5119901 8.30238735 7 13 C6.67 13.99 6.34 14.98 6 16 C0.06 16 -5.88 16 -12 16 C-9.2656934 13.2656934 -7.23006445 13.04659335 -3.421875 12.90234375 C-2.54015625 12.91394531 -1.6584375 12.92554688 -0.75 12.9375 C0.14203125 12.94652344 1.0340625 12.95554688 1.953125 12.96484375 C2.62859375 12.97644531 3.3040625 12.98804688 4 13 C3.71125 12.39671875 3.4225 11.7934375 3.125 11.171875 C2.75375 10.37265625 2.3825 9.5734375 2 8.75 C1.62875 7.96109375 1.2575 7.1721875 0.875 6.359375 C0 4 0 4 0 0 Z " fill="#908152" transform="translate(242,186)"/>
<path d="M0 0 C0.83595703 0.00451172 1.67191406 0.00902344 2.53320312 0.01367188 C4.58466649 0.02539452 6.63609273 0.04332797 8.6875 0.0625 C8.6875 0.3925 8.6875 0.7225 8.6875 1.0625 C8.00945312 1.09988281 7.33140625 1.13726562 6.6328125 1.17578125 C-1.8678834 1.77624592 -9.4874975 3.67166558 -17.3125 7.0625 C-16.73905063 4.19525314 -16.4510485 3.2010485 -14.3125 1.0625 C-9.65729128 -0.35275466 -4.81603296 -0.0494147 0 0 Z " fill="#AB7725" transform="translate(204.3125,286.9375)"/>
<path d="M0 0 C7.92 0 15.84 0 24 0 C23.67 0.66 23.34 1.32 23 2 C15.41 2.33 7.82 2.66 0 3 C0 2.01 0 1.02 0 0 Z " fill="#0E0D0B" transform="translate(344,341)"/>
<path d="M0 0 C-0.50789062 0.35191406 -1.01578125 0.70382812 -1.5390625 1.06640625 C-5.93988029 4.22279804 -9.50017273 7.43618475 -12.87109375 11.6796875 C-13.42990234 12.33324219 -13.42990234 12.33324219 -14 13 C-14.33 13 -14.66 13 -15 13 C-15 11.35 -15 9.7 -15 8 C-14.01 8 -13.02 8 -12 8 C-11.67 6.35 -11.34 4.7 -11 3 C-9.68 2.67 -8.36 2.34 -7 2 C-7 1.34 -7 0.68 -7 0 C-3.86650268 -1.04449911 -3.01031744 -0.93423645 0 0 Z " fill="#A27423" transform="translate(187,295)"/>
<path d="M0 0 C0.99 0.33 1.98 0.66 3 1 C2 4 2 4 0 5 C-2.12235807 5.1229938 -4.24911463 5.17555682 -6.375 5.1875 C-7.51710938 5.20167969 -8.65921875 5.21585938 -9.8359375 5.23046875 C-12.83936816 5.01170034 -14.47925934 4.57080637 -17 3 C-17 2.67 -17 2.34 -17 2 C-15.41058594 2.03480469 -15.41058594 2.03480469 -13.7890625 2.0703125 C-12.4010487 2.08906944 -11.0130273 2.10726972 -9.625 2.125 C-8.92632812 2.14175781 -8.22765625 2.15851563 -7.5078125 2.17578125 C-5.67102514 2.19344267 -3.83398037 2.10303261 -2 2 C-1.34 1.34 -0.68 0.68 0 0 Z " fill="#B59851" transform="translate(332,189)"/>
<path d="M0 0 C0.33 0.66 0.66 1.32 1 2 C0.34 2 -0.32 2 -1 2 C-1 2.66 -1 3.32 -1 4 C-3.31 4.66 -5.62 5.32 -8 6 C-8 6.66 -8 7.32 -8 8 C-12.1205746 9.99785435 -15.45194365 10.17835515 -20 10 C-17.31158983 6.60983571 -14.01667257 5.77220682 -10 4.4375 C-6.26970686 3.19018323 -3.2768837 2.18458913 0 0 Z " fill="#C2AA75" transform="translate(219,243)"/>
<path d="M0 0 C3.59403854 1.79701927 4.30131905 6.26926279 5.6875 9.875 C6.02072266 10.70386719 6.35394531 11.53273437 6.69726562 12.38671875 C7.00728516 13.18464844 7.31730469 13.98257813 7.63671875 14.8046875 C7.92248779 15.53671387 8.20825684 16.26874023 8.50268555 17.02294922 C9 19 9 19 8 22 C8 21.34 8 20.68 8 20 C7.01 19.67 6.02 19.34 5 19 C2.99592558 15.11440248 2.25057352 10.9459712 1.375 6.6875 C1.11460937 5.43324219 0.85421875 4.17898437 0.5859375 2.88671875 C0.39257812 1.93410156 0.19921875 0.98148438 0 0 Z " fill="#AD803F" transform="translate(256,226)"/>
<path d="M0 0 C2.91619791 3.40365621 4.2238027 6.91412309 5.6875 11.125 C6.12449219 12.36507813 6.56148438 13.60515625 7.01171875 14.8828125 C8 18 8 18 8 20 C7.01 20 6.02 20 5 20 C3.68 15.38 2.36 10.76 1 6 C0.67 6 0.34 6 0 6 C0 4.02 0 2.04 0 0 Z " fill="#CA922B" transform="translate(265,252)"/>
<path d="M0 0 C2.38236282 3.57354423 2.31019791 5.76866028 2.4609375 9.94140625 C2.63882812 10.62074219 2.81671875 11.30007813 3 12 C3.98613281 12.47373047 3.98613281 12.47373047 4.9921875 12.95703125 C5.65476562 13.30121094 6.31734375 13.64539063 7 14 C7.609375 16.3828125 7.609375 16.3828125 7.75 19.125 C7.80671875 20.03507812 7.8634375 20.94515625 7.921875 21.8828125 C7.94765625 22.58148438 7.9734375 23.28015625 8 24 C4.69795309 21.0218596 4.09480482 18.30623231 3 14 C2.649375 13.030625 2.29875 12.06125 1.9375 11.0625 C0.80219699 7.3538435 0.39886219 3.85566782 0 0 Z " fill="#C48429" transform="translate(273,272)"/>
<path d="M0 0 C0.99 0 1.98 0 3 0 C4.42944945 2.35438733 5.08661261 3.48032433 4.625 6.25 C4.41875 6.8275 4.2125 7.405 4 8 C3.67 7.34 3.34 6.68 3 6 C-0.43950364 6.61198376 -2.51564485 7.92058847 -5.25 10.0625 C-5.95640625 10.61035156 -6.6628125 11.15820312 -7.390625 11.72265625 C-7.92171875 12.14417969 -8.4528125 12.56570312 -9 13 C-9.66 12.67 -10.32 12.34 -11 12 C-7.04 8.7 -3.08 5.4 1 2 C0.67 1.34 0.34 0.68 0 0 Z " fill="#C5A04F" transform="translate(251,218)"/>
<path d="M0 0 C0.9435441 2.53899138 1.16906025 3.60909275 0.07421875 6.140625 C-0.61220703 7.18476563 -0.61220703 7.18476563 -1.3125 8.25 C-1.76238281 8.95640625 -2.21226562 9.6628125 -2.67578125 10.390625 C-3.11277344 10.92171875 -3.54976562 11.4528125 -4 12 C-4.66 12 -5.32 12 -6 12 C-6.33 12.66 -6.66 13.32 -7 14 C-7.66 12.02 -8.32 10.04 -9 8 C-8.2575 7.979375 -7.515 7.95875 -6.75 7.9375 C-3.57208751 6.85412074 -3.27248768 6.25525588 -1.6875 3.4375 C-1.130625 2.303125 -0.57375 1.16875 0 0 Z " fill="#D38D17" transform="translate(171,304)"/>
<path d="M0 0 C5.94 0 11.88 0 18 0 C15.31382413 2.68617587 13.34344467 3.95605555 9.4921875 4.08203125 C8.62851563 3.99308594 7.76484375 3.90414063 6.875 3.8125 C5.57175781 3.69841797 5.57175781 3.69841797 4.2421875 3.58203125 C2 3 2 3 0 0 Z " fill="#A47A27" transform="translate(136,339)"/>
<path d="M0 0 C1.9630836 0.92751198 3.92034027 1.86736453 5.875 2.8125 C7.51082031 3.59560547 7.51082031 3.59560547 9.1796875 4.39453125 C12 6 12 6 14 9 C9.50003317 9.44117322 7.65388883 9.52867608 4.0625 6.625 C2 4 2 4 2 2 C1.34 2 0.68 2 0 2 C0 1.34 0 0.68 0 0 Z " fill="#342315" transform="translate(312,243)"/>
<path d="M0 0 C0.66 0 1.32 0 2 0 C2 1.98 2 3.96 2 6 C2.99 6.33 3.98 6.66 5 7 C5.66 7.66 6.32 8.32 7 9 C4.69 8.67 2.38 8.34 0 8 C-0.33 7.01 -0.66 6.02 -1 5 C-1.99 5.33 -2.98 5.66 -4 6 C-4 5.01 -4 4.02 -4 3 C-2.68 3 -1.36 3 0 3 C0 2.01 0 1.02 0 0 Z " fill="#CEA042" transform="translate(196,245)"/>
<path d="M0 0 C0.66 0.33 1.32 0.66 2 1 C1.21625 1.9075 0.4325 2.815 -0.375 3.75 C-3.80451877 7.88474376 -5.36987809 11.87675972 -7 17 C-7.66 17 -8.32 17 -9 17 C-4.64325843 3.09550562 -4.64325843 3.09550562 0 0 Z " fill="#E2CC7E" transform="translate(194,165)"/>
<path d="M0 0 C1.32 0 2.64 0 4 0 C4.66 0.99 5.32 1.98 6 3 C9.00778521 4.00259507 11.53820647 4.30314642 14.6875 4.5625 C15.68136719 4.64628906 16.67523438 4.73007812 17.69921875 4.81640625 C18.83810547 4.90728516 18.83810547 4.90728516 20 5 C20 5.33 20 5.66 20 6 C8.35549836 7.7591037 8.35549836 7.7591037 3.8125 5.25 C1 3 1 3 0 0 Z " fill="#B07D38" transform="translate(256,335)"/>
<path d="M0 0 C3.94120709 0.56302958 6.7508723 1.6791945 10 4 C10 4.66 10 5.32 10 6 C10.66 6 11.32 6 12 6 C14 9 14 9 14 12 C13.01 12 12.02 12 11 12 C11 10.68 11 9.36 11 8 C10.401875 7.731875 9.80375 7.46375 9.1875 7.1875 C6.98924887 5.99416367 5.71838174 4.78998098 4 3 C2.68036291 1.98199424 1.34990354 0.97751635 0 0 Z " fill="#D0A76D" transform="translate(330,208)"/>
<path d="M0 0 C0.98484375 0.01804688 1.9696875 0.03609375 2.984375 0.0546875 C4.10585938 0.08949219 4.10585938 0.08949219 5.25 0.125 C5.25 0.455 5.25 0.785 5.25 1.125 C2.28 1.125 -0.69 1.125 -3.75 1.125 C-3.75 1.785 -3.75 2.445 -3.75 3.125 C-7.1852048 5.41513653 -8.735331 5.30342973 -12.75 5.125 C-8.88252442 0.87077686 -5.72150566 -0.13622633 0 0 Z " fill="#E9C783" transform="translate(324.75,206.875)"/>
<path d="M0 0 C1.5 1.25 1.5 1.25 3 3 C3 4.32 3 5.64 3 7 C0.69 7 -1.62 7 -4 7 C-3.34 5.35 -2.68 3.7 -2 2 C-1.34 2 -0.68 2 0 2 C0 1.34 0 0.68 0 0 Z " fill="#DEBC67" transform="translate(241,192)"/>
<path d="M0 0 C3.55007718 3.9050849 4.81819916 6.97734643 6 12 C5.01 11.67 4.02 11.34 3 11 C3 10.34 3 9.68 3 9 C2.34 9 1.68 9 1 9 C0.67 6.03 0.34 3.06 0 0 Z " fill="#C5B078" transform="translate(231,163)"/>
<path d="M0 0 C0.99 0.33 1.98 0.66 3 1 C-0.3 3.97 -3.6 6.94 -7 10 C-7.66 9.34 -8.32 8.68 -9 8 C-7.37660195 6.29115995 -5.70680947 4.62553283 -4 3 C-3.34 3 -2.68 3 -2 3 C-2 2.34 -2 1.68 -2 1 C-1.34 0.67 -0.68 0.34 0 0 Z " fill="#CAB277" transform="translate(250,219)"/>
<path d="M0 0 C-0.33 1.32 -0.66 2.64 -1 4 C-6.61 3.67 -12.22 3.34 -18 3 C-18 2.67 -18 2.34 -18 2 C-15.56281065 1.66424944 -13.12529385 1.33130715 -10.6875 1 C-9.99720703 0.90460938 -9.30691406 0.80921875 -8.59570312 0.7109375 C-5.70352927 0.31972558 -2.92235023 0 0 0 Z " fill="#4B310B" transform="translate(345,247)"/>
<path d="M0 0 C3.465 1.485 3.465 1.485 7 3 C7 3.66 7 4.32 7 5 C7.66 5.33 8.32 5.66 9 6 C8.67 6.99 8.34 7.98 8 9 C7.01 9 6.02 9 5 9 C5 7.35 5 5.7 5 4 C4.360625 3.896875 3.72125 3.79375 3.0625 3.6875 C2.381875 3.460625 1.70125 3.23375 1 3 C0.67 2.01 0.34 1.02 0 0 Z " fill="#DFCB8F" transform="translate(223,157)"/>
<path d="M0 0 C0.33 0 0.66 0 1 0 C1.30993348 4.54569102 0.97680153 6.565229 -2 10 C-2.69580267 11.31836295 -3.37224433 12.64791086 -4 14 C-5.305239 10.08428299 -4.32239848 8.96107003 -2.5625 5.3125 C-2.08941406 4.31863281 -1.61632812 3.32476562 -1.12890625 2.30078125 C-0.75636719 1.54152344 -0.38382813 0.78226563 0 0 Z " fill="#EFD69A" transform="translate(163,226)"/>
<path d="M0 0 C0.33 0.66 0.66 1.32 1 2 C2.32 2 3.64 2 5 2 C5.66 3.32 6.32 4.64 7 6 C6.01 6.66 5.02 7.32 4 8 C1 6 1 6 0.3125 2.875 C0.209375 1.92625 0.10625 0.9775 0 0 Z " fill="#D7B470" transform="translate(310,184)"/>
<path d="M0 0 C0.33 0.66 0.66 1.32 1 2 C-1.51407619 6.28324091 -3.12314139 8.64531705 -8 10 C-7.25 7.0625 -7.25 7.0625 -6 4 C-4 3.3125 -4 3.3125 -2 3 C-1.34 2.01 -0.68 1.02 0 0 Z " fill="#845719" transform="translate(287,330)"/>
<path d="M0 0 C0.99 0 1.98 0 3 0 C4.53266582 3.06533164 4.10276471 6.26754272 4.0625 9.625 C4.05798828 10.33140625 4.05347656 11.0378125 4.04882812 11.765625 C4.03703875 13.51045275 4.01910324 15.255237 4 17 C3.67 17 3.34 17 3 17 C2.95101563 16.10796875 2.90203125 15.2159375 2.8515625 14.296875 C2.77679688 13.12640625 2.70203125 11.9559375 2.625 10.75 C2.55539062 9.58984375 2.48578125 8.4296875 2.4140625 7.234375 C2.03751692 4.29305666 1.5225877 2.50050989 0 0 Z " fill="#BFA869" transform="translate(340,162)"/>
<path d="M0 0 C1.32 0 2.64 0 4 0 C4 0.99 4 1.98 4 3 C3.34 3 2.68 3 2 3 C2 3.66 2 4.32 2 5 C-0.35438733 6.42944945 -1.48032433 7.08661261 -4.25 6.625 C-4.8275 6.41875 -5.405 6.2125 -6 6 C-4.02 5.01 -2.04 4.02 0 3 C0 2.01 0 1.02 0 0 Z " fill="#845D1A" transform="translate(155,335)"/>
<path d="M0 0 C0.75 1.75 0.75 1.75 1 4 C-0.9375 6.25 -0.9375 6.25 -3 8 C-3.75 6.25 -3.75 6.25 -4 4 C-2.0625 1.75 -2.0625 1.75 0 0 Z " fill="#C78119" transform="translate(286,327)"/>
<path d="M0 0 C2.8125 0.1875 2.8125 0.1875 6 1 C7.9375 3.4375 7.9375 3.4375 9 6 C8.67 6.66 8.34 7.32 8 8 C6.66372225 6.85760183 5.33104612 5.71098945 4 4.5625 C3.2575 3.92441406 2.515 3.28632813 1.75 2.62890625 C1.1725 2.09136719 0.595 1.55382812 0 1 C0 0.67 0 0.34 0 0 Z " fill="#9E7327" transform="translate(231,294)"/>
<path d="M0 0 C0.66 0 1.32 0 2 0 C2.67305018 1.60149886 3.33822227 3.20631029 4 4.8125 C4.37125 5.70582031 4.7425 6.59914062 5.125 7.51953125 C6 10 6 10 6 13 C5.34 13 4.68 13 4 13 C3.32942113 11.2097939 2.6636531 9.41778511 2 7.625 C1.62875 6.62726563 1.2575 5.62953125 0.875 4.6015625 C0 2 0 2 0 0 Z " fill="#D3BA79" transform="translate(240,186)"/>
<path d="M0 0 C0.66 0.33 1.32 0.66 2 1 C-0.15663267 4.23494901 -1.68903984 5.10802277 -5 7 C-6.34631825 7.98244845 -7.68441297 8.97676564 -9 10 C-7.61811547 6.78956118 -6.07578097 4.95063635 -3.375 2.75 C-2.74335938 2.22921875 -2.11171875 1.7084375 -1.4609375 1.171875 C-0.73777344 0.59179688 -0.73777344 0.59179688 0 0 Z " fill="#F2E4B6" transform="translate(316,154)"/>
<path d="M0 0 C1.21236328 0.04060547 1.21236328 0.04060547 2.44921875 0.08203125 C3.06410156 0.11683594 3.67898437 0.15164062 4.3125 0.1875 C3.673125 0.496875 3.03375 0.80625 2.375 1.125 C0.37639179 2.0220163 0.37639179 2.0220163 -0.6875 3.1875 C-3.02047433 3.22842937 -5.35455225 3.22991723 -7.6875 3.1875 C-5.26849268 0.20484049 -3.789448 -0.16475861 0 0 Z " fill="#CCAA62" transform="translate(206.6875,249.8125)"/>
<path d="M0 0 C1.875 0.5 1.875 0.5 4 2 C4.98494554 4.65177645 5.45912382 7.20547307 6 10 C5.01 10.33 4.02 10.66 3 11 C3 8.69 3 6.38 3 4 C2.34 4 1.68 4 1 4 C0.67 2.68 0.34 1.36 0 0 Z " fill="#C98328" transform="translate(241,299)"/>
<path d="M0 0 C0.33 0 0.66 0 1 0 C1.35233161 5.37305699 1.35233161 5.37305699 1 8 C-1 10 -1 10 -3 11 C-2.32829194 7.1936543 -1.27253436 3.64793184 0 0 Z " fill="#E7C778" transform="translate(139,285)"/>
<path d="M0 0 C0.6875 1.625 0.6875 1.625 1 4 C-0.4375 7.25 -0.4375 7.25 -2 10 C-2.33 10 -2.66 10 -3 10 C-2.88637738 8.5199159 -2.75877092 7.04089926 -2.625 5.5625 C-2.55539063 4.73878906 -2.48578125 3.91507812 -2.4140625 3.06640625 C-2.27742187 2.38449219 -2.14078125 1.70257813 -2 1 C-1.34 0.67 -0.68 0.34 0 0 Z " fill="#DFB861" transform="translate(151,258)"/>
<path d="M0 0 C2.0625 0.4375 2.0625 0.4375 4 1 C3.67 1.66 3.34 2.32 3 3 C0.93359375 3.4140625 0.93359375 3.4140625 -1.5625 3.625 C-2.38878906 3.69976562 -3.21507812 3.77453125 -4.06640625 3.8515625 C-5.02353516 3.92503906 -5.02353516 3.92503906 -6 4 C-5.67 3.34 -5.34 2.68 -5 2 C-3.67696283 1.6278958 -2.34262065 1.29369827 -1 1 C-0.67 0.67 -0.34 0.34 0 0 Z " fill="#CD8D0E" transform="translate(152,336)"/>
<path d="M0 0 C1.32 0.33 2.64 0.66 4 1 C3.67 2.65 3.34 4.3 3 6 C2.01 6.33 1.02 6.66 0 7 C0 4.69 0 2.38 0 0 Z " fill="#25241F" transform="translate(307,242)"/>
<path d="M0 0 C0.66 0.66 1.32 1.32 2 2 C-0.31 4.31 -2.62 6.62 -5 9 C-5.33 8.34 -5.66 7.68 -6 7 C-4.71937515 5.2925002 -3.38232443 3.62626404 -2 2 C-1.34 2 -0.68 2 0 2 C0 1.34 0 0.68 0 0 Z " fill="#D5BE87" transform="translate(240,227)"/>
<path d="M0 0 C-1.375 2 -1.375 2 -3 4 C-3.66 4 -4.32 4 -5 4 C-5 4.66 -5 5.32 -5 6 C-5.66 5.67 -6.32 5.34 -7 5 C-7 3.68 -7 2.36 -7 1 C-4.53721199 -0.231394 -2.7204945 -0.07159196 0 0 Z " fill="#9A844A" transform="translate(224,205)"/>
<path d="M0 0 C2.1875 0.3125 2.1875 0.3125 4 1 C2.68 2.32 1.36 3.64 0 5 C-0.99 4.34 -1.98 3.68 -3 3 C-1.75 1.4375 -1.75 1.4375 0 0 Z " fill="#D7B865" transform="translate(222,201)"/>
<path d="M0 0 C0.75 1.5625 0.75 1.5625 1 4 C-0.13084437 6.50286409 -1.52139516 8.67007722 -3 11 C-3.75 9.4375 -3.75 9.4375 -4 7 C-2.86915563 4.49713591 -1.47860484 2.32992278 0 0 Z " fill="#C88D22" transform="translate(171,304)"/>
<path d="M0 0 C1 2 1 2 0.375 4.0625 C-1 6 -1 6 -3.625 6.75 C-4.800625 6.87375 -4.800625 6.87375 -6 7 C-4.60667426 3.63279613 -3.0210714 2.0140476 0 0 Z " fill="#D6A33B" transform="translate(237,233)"/>
</svg>
